<svg xmlns="http://www.w3.org/2000/svg" xmlns:xlink="http://www.w3.org/1999/xlink" width="500" zoomAndPan="magnify" viewBox="0 0 375 149.999998" height="200" preserveAspectRatio="xMidYMid meet" version="1.0"><defs><g/><clipPath id="19d7a37dc6"><path d="M 11.25 0 L 363.75 0 C 369.964844 0 375 5.035156 375 11.25 L 375 138.75 C 375 144.964844 369.964844 150 363.75 150 L 11.25 150 C 5.035156 150 0 144.964844 0 138.75 L 0 11.25 C 0 5.035156 5.035156 0 11.25 0 Z M 11.25 0 " clip-rule="nonzero"/></clipPath><clipPath id="4dedaf4e01"><path d="M 15 15 L 28.75 15 L 28.75 28.75 L 15 28.75 Z M 15 15 " clip-rule="nonzero"/></clipPath><clipPath id="61de1a6cff"><path d="M 21.875 15 C 18.078125 15 15 18.078125 15 21.875 C 15 25.671875 18.078125 28.75 21.875 28.75 C 25.671875 28.75 28.75 25.671875 28.75 21.875 C 28.75 18.078125 25.671875 15 21.875 15 Z M 21.875 15 " clip-rule="nonzero"/></clipPath><clipPath id="7f00e4ddf6"><path d="M 15 121.25 L 28.75 121.25 L 28.75 135 L 15 135 Z M 15 121.25 " clip-rule="nonzero"/></clipPath><clipPath id="71df65f64a"><path d="M 21.875 121.25 C 18.078125 121.25 15 124.328125 15 128.125 C 15 131.921875 18.078125 135 21.875 135 C 25.671875 135 28.75 131.921875 28.75 128.125 C 28.75 124.328125 25.671875 121.25 21.875 121.25 Z M 21.875 121.25 " clip-rule="nonzero"/></clipPath><clipPath id="8ab642e0a0"><path d="M 345.886719 121.25 L 359.636719 121.25 L 359.636719 135 L 345.886719 135 Z M 345.886719 121.25 " clip-rule="nonzero"/></clipPath><clipPath id="0593ef204d"><path d="M 352.761719 121.25 C 348.964844 121.25 345.886719 124.328125 345.886719 128.125 C 345.886719 131.921875 348.964844 135 352.761719 135 C 356.558594 135 359.636719 131.921875 359.636719 128.125 C 359.636719 124.328125 356.558594 121.25 352.761719 121.25 Z M 352.761719 121.25 " clip-rule="nonzero"/></clipPath><clipPath id="18a3299563"><path d="M 345.886719 15 L 359.636719 15 L 359.636719 28.75 L 345.886719 28.75 Z M 345.886719 15 " clip-rule="nonzero"/></clipPath><clipPath id="5d420f2afd"><path d="M 352.761719 15 C 348.964844 15 345.886719 18.078125 345.886719 21.875 C 345.886719 25.671875 348.964844 28.75 352.761719 28.75 C 356.558594 28.75 359.636719 25.671875 359.636719 21.875 C 359.636719 18.078125 356.558594 15 352.761719 15 Z M 352.761719 15 " clip-rule="nonzero"/></clipPath></defs><g clip-path="url(#19d7a37dc6)"><rect x="-37.5" width="450" fill="#000000" y="-15" height="179.999997" fill-opacity="1"/><path stroke-linecap="butt" transform="matrix(0.75, 0, 0, 0.75, 0.00000580721, 0.000002)" fill="none" stroke-linejoin="miter" d="M 14.999994 -0.00000266667 L 485.000052 -0.00000266667 C 493.286511 -0.00000266667 500.000053 6.71354 500.000053 14.999999 L 500.000053 185.00002 C 500.000053 193.286479 493.286511 200.000022 485.000052 200.000022 L 14.999994 200.000022 C 6.713535 200.000022 -0.00000774295 193.286479 -0.00000774295 185.00002 L -0.00000774295 14.999999 C -0.00000774295 6.71354 6.713535 -0.00000266667 14.999994 -0.00000266667 Z M 14.999994 -0.00000266667 " stroke="#fad9b2" stroke-width="8" stroke-opacity="1" stroke-miterlimit="4"/></g><g clip-path="url(#4dedaf4e01)"><g clip-path="url(#61de1a6cff)"><path fill="#fad9b2" d="M 15 15 L 28.75 15 L 28.75 28.75 L 15 28.75 Z M 15 15 " fill-opacity="1" fill-rule="nonzero"/></g></g><g clip-path="url(#7f00e4ddf6)"><g clip-path="url(#71df65f64a)"><path fill="#fad9b2" d="M 15 121.25 L 28.75 121.25 L 28.75 135 L 15 135 Z M 15 121.25 " fill-opacity="1" fill-rule="nonzero"/></g></g><g clip-path="url(#8ab642e0a0)"><g clip-path="url(#0593ef204d)"><path fill="#fad9b2" d="M 345.886719 121.25 L 359.636719 121.25 L 359.636719 135 L 345.886719 135 Z M 345.886719 121.25 " fill-opacity="1" fill-rule="nonzero"/></g></g><g clip-path="url(#18a3299563)"><g clip-path="url(#5d420f2afd)"><path fill="#fad9b2" d="M 345.886719 15 L 359.636719 15 L 359.636719 28.75 L 345.886719 28.75 Z M 345.886719 15 " fill-opacity="1" fill-rule="nonzero"/></g></g><g fill="#fad9b2" fill-opacity="1"><g transform="translate(41.601269, 106.056347)"><g><path d="M 26.09375 -61.875 C 32.84375 -61.875 38.6875 -60.613281 43.625 -58.09375 C 48.570312 -55.582031 52.359375 -51.988281 54.984375 -47.3125 C 57.617188 -42.632812 58.9375 -37.128906 58.9375 -30.796875 C 58.9375 -24.460938 57.617188 -18.972656 54.984375 -14.328125 C 52.359375 -9.691406 48.570312 -6.144531 43.625 -3.6875 C 38.6875 -1.226562 32.84375 0 26.09375 0 L 6.828125 0 L 6.828125 -61.875 Z M 26.09375 -6.65625 C 34.082031 -6.65625 40.175781 -8.769531 44.375 -13 C 48.582031 -17.226562 50.6875 -23.160156 50.6875 -30.796875 C 50.6875 -38.492188 48.566406 -44.5 44.328125 -48.8125 C 40.097656 -53.132812 34.019531 -55.296875 26.09375 -55.296875 L 14.90625 -55.296875 L 14.90625 -6.65625 Z M 26.09375 -6.65625 "/></g></g></g><g fill="#fad9b2" fill-opacity="1"><g transform="translate(99.03292, 106.056347)"><g><path d="M 11.1875 -56.546875 C 9.644531 -56.546875 8.351562 -57.078125 7.3125 -58.140625 C 6.28125 -59.203125 5.765625 -60.503906 5.765625 -62.046875 C 5.765625 -63.585938 6.28125 -64.890625 7.3125 -65.953125 C 8.351562 -67.015625 9.644531 -67.546875 11.1875 -67.546875 C 12.726562 -67.546875 14.015625 -67.015625 15.046875 -65.953125 C 16.078125 -64.890625 16.59375 -63.585938 16.59375 -62.046875 C 16.59375 -60.503906 16.078125 -59.203125 15.046875 -58.140625 C 14.015625 -57.078125 12.726562 -56.546875 11.1875 -56.546875 Z M 15.171875 10.5625 C 15.171875 14.882812 14.078125 18.050781 11.890625 20.0625 C 9.703125 22.070312 6.507812 23.078125 2.3125 23.078125 L -2.390625 23.078125 L -2.390625 16.25 L 0.96875 16.25 C 3.21875 16.25 4.800781 15.800781 5.71875 14.90625 C 6.632812 14.019531 7.09375 12.515625 7.09375 10.390625 L 7.09375 -48.640625 L 15.171875 -48.640625 Z M 15.171875 10.5625 "/></g></g></g><g fill="#fad9b2" fill-opacity="1"><g transform="translate(115.720678, 106.056347)"><g><path d="M 3.8125 -24.5 C 3.8125 -29.46875 4.816406 -33.832031 6.828125 -37.59375 C 8.847656 -41.351562 11.617188 -44.265625 15.140625 -46.328125 C 18.660156 -48.398438 22.578125 -49.4375 26.890625 -49.4375 C 31.148438 -49.4375 34.847656 -48.519531 37.984375 -46.6875 C 41.128906 -44.851562 43.46875 -42.546875 45 -39.765625 L 45 -48.640625 L 53.171875 -48.640625 L 53.171875 0 L 45 0 L 45 -9.046875 C 43.40625 -6.210938 41.023438 -3.863281 37.859375 -2 C 34.691406 -0.132812 31.007812 0.796875 26.8125 0.796875 C 22.488281 0.796875 18.582031 -0.265625 15.09375 -2.390625 C 11.601562 -4.523438 8.847656 -7.515625 6.828125 -11.359375 C 4.816406 -15.203125 3.8125 -19.582031 3.8125 -24.5 Z M 45 -24.40625 C 45 -28.070312 44.257812 -31.265625 42.78125 -33.984375 C 41.300781 -36.710938 39.300781 -38.800781 36.78125 -40.25 C 34.269531 -41.707031 31.507812 -42.4375 28.5 -42.4375 C 25.476562 -42.4375 22.722656 -41.722656 20.234375 -40.296875 C 17.753906 -38.878906 15.773438 -36.804688 14.296875 -34.078125 C 12.816406 -31.359375 12.078125 -28.164062 12.078125 -24.5 C 12.078125 -20.769531 12.816406 -17.53125 14.296875 -14.78125 C 15.773438 -12.03125 17.753906 -9.925781 20.234375 -8.46875 C 22.722656 -7.019531 25.476562 -6.296875 28.5 -6.296875 C 31.507812 -6.296875 34.269531 -7.019531 36.78125 -8.46875 C 39.300781 -9.925781 41.300781 -12.03125 42.78125 -14.78125 C 44.257812 -17.53125 45 -20.738281 45 -24.40625 Z M 45 -24.40625 "/></g></g></g><g fill="#fad9b2" fill-opacity="1"><g transform="translate(170.400569, 106.056347)"><g><path d="M 30.53125 -49.53125 C 36.445312 -49.53125 41.238281 -47.738281 44.90625 -44.15625 C 48.582031 -40.582031 50.421875 -35.421875 50.421875 -28.671875 L 50.421875 0 L 42.4375 0 L 42.4375 -27.515625 C 42.4375 -32.367188 41.222656 -36.082031 38.796875 -38.65625 C 36.367188 -41.226562 33.050781 -42.515625 28.84375 -42.515625 C 24.582031 -42.515625 21.191406 -41.179688 18.671875 -38.515625 C 16.160156 -35.859375 14.90625 -31.984375 14.90625 -26.890625 L 14.90625 0 L 6.828125 0 L 6.828125 -48.640625 L 14.90625 -48.640625 L 14.90625 -41.71875 C 16.507812 -44.207031 18.6875 -46.128906 21.4375 -47.484375 C 24.1875 -48.847656 27.21875 -49.53125 30.53125 -49.53125 Z M 30.53125 -49.53125 "/></g></g></g><g fill="#fad9b2" fill-opacity="1"><g transform="translate(221.884859, 106.056347)"><g><path d="M 26.890625 -49.4375 C 31.097656 -49.4375 34.785156 -48.519531 37.953125 -46.6875 C 41.117188 -44.851562 43.46875 -42.546875 45 -39.765625 L 45 -48.640625 L 53.171875 -48.640625 L 53.171875 1.0625 C 53.171875 5.5 52.222656 9.445312 50.328125 12.90625 C 48.429688 16.375 45.722656 19.082031 42.203125 21.03125 C 38.679688 22.988281 34.582031 23.96875 29.90625 23.96875 C 23.519531 23.96875 18.195312 22.457031 13.9375 19.4375 C 9.675781 16.414062 7.160156 12.300781 6.390625 7.09375 L 14.375 7.09375 C 15.269531 10.0625 17.109375 12.445312 19.890625 14.25 C 22.671875 16.050781 26.007812 16.953125 29.90625 16.953125 C 34.351562 16.953125 37.976562 15.5625 40.78125 12.78125 C 43.59375 10 45 6.09375 45 1.0625 L 45 -9.140625 C 43.40625 -6.296875 41.039062 -3.925781 37.90625 -2.03125 C 34.769531 -0.144531 31.097656 0.796875 26.890625 0.796875 C 22.578125 0.796875 18.660156 -0.265625 15.140625 -2.390625 C 11.617188 -4.523438 8.847656 -7.515625 6.828125 -11.359375 C 4.816406 -15.203125 3.8125 -19.582031 3.8125 -24.5 C 3.8125 -29.46875 4.816406 -33.832031 6.828125 -37.59375 C 8.847656 -41.351562 11.617188 -44.265625 15.140625 -46.328125 C 18.660156 -48.398438 22.578125 -49.4375 26.890625 -49.4375 Z M 45 -24.40625 C 45 -28.070312 44.257812 -31.265625 42.78125 -33.984375 C 41.300781 -36.710938 39.300781 -38.800781 36.78125 -40.25 C 34.269531 -41.707031 31.507812 -42.4375 28.5 -42.4375 C 25.476562 -42.4375 22.722656 -41.722656 20.234375 -40.296875 C 17.753906 -38.878906 15.773438 -36.804688 14.296875 -34.078125 C 12.816406 -31.359375 12.078125 -28.164062 12.078125 -24.5 C 12.078125 -20.769531 12.816406 -17.53125 14.296875 -14.78125 C 15.773438 -12.03125 17.753906 -9.925781 20.234375 -8.46875 C 22.722656 -7.019531 25.476562 -6.296875 28.5 -6.296875 C 31.507812 -6.296875 34.269531 -7.019531 36.78125 -8.46875 C 39.300781 -9.925781 41.300781 -12.03125 42.78125 -14.78125 C 44.257812 -17.53125 45 -20.738281 45 -24.40625 Z M 45 -24.40625 "/></g></g></g><g fill="#fad9b2" fill-opacity="1"><g transform="translate(276.56475, 106.056347)"><g><path d="M 28.046875 0.796875 C 23.492188 0.796875 19.367188 -0.238281 15.671875 -2.3125 C 11.972656 -4.382812 9.070312 -7.328125 6.96875 -11.140625 C 4.863281 -14.953125 3.8125 -19.375 3.8125 -24.40625 C 3.8125 -29.375 4.890625 -33.765625 7.046875 -37.578125 C 9.210938 -41.398438 12.160156 -44.332031 15.890625 -46.375 C 19.617188 -48.414062 23.789062 -49.4375 28.40625 -49.4375 C 33.019531 -49.4375 37.191406 -48.414062 40.921875 -46.375 C 44.648438 -44.332031 47.59375 -41.414062 49.75 -37.625 C 51.914062 -33.84375 53 -29.4375 53 -24.40625 C 53 -19.375 51.882812 -14.953125 49.65625 -11.140625 C 47.4375 -7.328125 44.429688 -4.382812 40.640625 -2.3125 C 36.859375 -0.238281 32.660156 0.796875 28.046875 0.796875 Z M 28.046875 -6.296875 C 30.953125 -6.296875 33.675781 -6.976562 36.21875 -8.34375 C 38.757812 -9.707031 40.8125 -11.75 42.375 -14.46875 C 43.945312 -17.1875 44.734375 -20.5 44.734375 -24.40625 C 44.734375 -28.3125 43.960938 -31.625 42.421875 -34.34375 C 40.890625 -37.070312 38.878906 -39.101562 36.390625 -40.4375 C 33.910156 -41.769531 31.21875 -42.4375 28.3125 -42.4375 C 25.351562 -42.4375 22.644531 -41.769531 20.1875 -40.4375 C 17.738281 -39.101562 15.773438 -37.070312 14.296875 -34.34375 C 12.816406 -31.625 12.078125 -28.3125 12.078125 -24.40625 C 12.078125 -20.445312 12.800781 -17.101562 14.25 -14.375 C 15.695312 -11.65625 17.632812 -9.628906 20.0625 -8.296875 C 22.488281 -6.960938 25.148438 -6.296875 28.046875 -6.296875 Z M 28.046875 -6.296875 "/></g></g></g></svg>