<svg xmlns="http://www.w3.org/2000/svg" xmlns:xlink="http://www.w3.org/1999/xlink" width="500" zoomAndPan="magnify" viewBox="0 0 375 149.999998" height="200" preserveAspectRatio="xMidYMid meet" version="1.0"><defs><g/><clipPath id="aaae17b01a"><path d="M 11.25 0 L 363.75 0 C 369.964844 0 375 5.035156 375 11.25 L 375 138.75 C 375 144.964844 369.964844 150 363.75 150 L 11.25 150 C 5.035156 150 0 144.964844 0 138.75 L 0 11.25 C 0 5.035156 5.035156 0 11.25 0 Z M 11.25 0 " clip-rule="nonzero"/></clipPath><clipPath id="1af304ee58"><path d="M 15 15 L 28.75 15 L 28.75 28.75 L 15 28.75 Z M 15 15 " clip-rule="nonzero"/></clipPath><clipPath id="7988140734"><path d="M 21.875 15 C 18.078125 15 15 18.078125 15 21.875 C 15 25.671875 18.078125 28.75 21.875 28.75 C 25.671875 28.75 28.75 25.671875 28.75 21.875 C 28.75 18.078125 25.671875 15 21.875 15 Z M 21.875 15 " clip-rule="nonzero"/></clipPath><clipPath id="9c33f1c757"><path d="M 15 121.25 L 28.75 121.25 L 28.75 135 L 15 135 Z M 15 121.25 " clip-rule="nonzero"/></clipPath><clipPath id="0e7a4d2418"><path d="M 21.875 121.25 C 18.078125 121.25 15 124.328125 15 128.125 C 15 131.921875 18.078125 135 21.875 135 C 25.671875 135 28.75 131.921875 28.75 128.125 C 28.75 124.328125 25.671875 121.25 21.875 121.25 Z M 21.875 121.25 " clip-rule="nonzero"/></clipPath><clipPath id="a7c31455a6"><path d="M 345.886719 121.25 L 359.636719 121.25 L 359.636719 135 L 345.886719 135 Z M 345.886719 121.25 " clip-rule="nonzero"/></clipPath><clipPath id="f3ea4420ce"><path d="M 352.761719 121.25 C 348.964844 121.25 345.886719 124.328125 345.886719 128.125 C 345.886719 131.921875 348.964844 135 352.761719 135 C 356.558594 135 359.636719 131.921875 359.636719 128.125 C 359.636719 124.328125 356.558594 121.25 352.761719 121.25 Z M 352.761719 121.25 " clip-rule="nonzero"/></clipPath><clipPath id="de82140929"><path d="M 345.886719 15 L 359.636719 15 L 359.636719 28.75 L 345.886719 28.75 Z M 345.886719 15 " clip-rule="nonzero"/></clipPath><clipPath id="9c0051c584"><path d="M 352.761719 15 C 348.964844 15 345.886719 18.078125 345.886719 21.875 C 345.886719 25.671875 348.964844 28.75 352.761719 28.75 C 356.558594 28.75 359.636719 25.671875 359.636719 21.875 C 359.636719 18.078125 356.558594 15 352.761719 15 Z M 352.761719 15 " clip-rule="nonzero"/></clipPath></defs><g clip-path="url(#aaae17b01a)"><rect x="-37.5" width="450" fill="#000000" y="-15" height="179.999997" fill-opacity="1"/><path stroke-linecap="butt" transform="matrix(0.75, 0, 0, 0.75, 0.00000580721, 0.000002)" fill="none" stroke-linejoin="miter" d="M 14.999994 -0.00000266667 L 485.000052 -0.00000266667 C 493.286511 -0.00000266667 500.000053 6.71354 500.000053 14.999999 L 500.000053 185.00002 C 500.000053 193.286479 493.286511 200.000022 485.000052 200.000022 L 14.999994 200.000022 C 6.713535 200.000022 -0.00000774295 193.286479 -0.00000774295 185.00002 L -0.00000774295 14.999999 C -0.00000774295 6.71354 6.713535 -0.00000266667 14.999994 -0.00000266667 Z M 14.999994 -0.00000266667 " stroke="#fad9b2" stroke-width="8" stroke-opacity="1" stroke-miterlimit="4"/></g><g clip-path="url(#1af304ee58)"><g clip-path="url(#7988140734)"><path fill="#fad9b2" d="M 15 15 L 28.75 15 L 28.75 28.75 L 15 28.75 Z M 15 15 " fill-opacity="1" fill-rule="nonzero"/></g></g><g clip-path="url(#9c33f1c757)"><g clip-path="url(#0e7a4d2418)"><path fill="#fad9b2" d="M 15 121.25 L 28.75 121.25 L 28.75 135 L 15 135 Z M 15 121.25 " fill-opacity="1" fill-rule="nonzero"/></g></g><g clip-path="url(#a7c31455a6)"><g clip-path="url(#f3ea4420ce)"><path fill="#fad9b2" d="M 345.886719 121.25 L 359.636719 121.25 L 359.636719 135 L 345.886719 135 Z M 345.886719 121.25 " fill-opacity="1" fill-rule="nonzero"/></g></g><g clip-path="url(#de82140929)"><g clip-path="url(#9c0051c584)"><path fill="#fad9b2" d="M 345.886719 15 L 359.636719 15 L 359.636719 28.75 L 345.886719 28.75 Z M 345.886719 15 " fill-opacity="1" fill-rule="nonzero"/></g></g><g fill="#fad9b2" fill-opacity="1"><g transform="translate(24.215047, 94.824068)"><g><path d="M 16.625 -39.40625 C 20.914062 -39.40625 24.632812 -38.601562 27.78125 -37 C 30.925781 -35.394531 33.335938 -33.101562 35.015625 -30.125 C 36.691406 -27.15625 37.53125 -23.648438 37.53125 -19.609375 C 37.53125 -15.578125 36.691406 -12.082031 35.015625 -9.125 C 33.335938 -6.164062 30.925781 -3.90625 27.78125 -2.34375 C 24.632812 -0.78125 20.914062 0 16.625 0 L 4.359375 0 L 4.359375 -39.40625 Z M 16.625 -4.234375 C 21.707031 -4.234375 25.585938 -5.582031 28.265625 -8.28125 C 30.941406 -10.976562 32.28125 -14.753906 32.28125 -19.609375 C 32.28125 -24.515625 30.929688 -28.34375 28.234375 -31.09375 C 25.546875 -33.84375 21.675781 -35.21875 16.625 -35.21875 L 9.5 -35.21875 L 9.5 -4.234375 Z M 16.625 -4.234375 "/></g></g></g><g fill="#fad9b2" fill-opacity="1"><g transform="translate(60.778472, 94.824068)"><g><path d="M 7.125 -36.015625 C 6.144531 -36.015625 5.320312 -36.351562 4.65625 -37.03125 C 4 -37.707031 3.671875 -38.535156 3.671875 -39.515625 C 3.671875 -40.492188 4 -41.320312 4.65625 -42 C 5.320312 -42.675781 6.144531 -43.015625 7.125 -43.015625 C 8.101562 -43.015625 8.921875 -42.675781 9.578125 -42 C 10.242188 -41.320312 10.578125 -40.492188 10.578125 -39.515625 C 10.578125 -38.535156 10.242188 -37.707031 9.578125 -37.03125 C 8.921875 -36.351562 8.101562 -36.015625 7.125 -36.015625 Z M 9.671875 6.734375 C 9.671875 9.484375 8.972656 11.5 7.578125 12.78125 C 6.179688 14.0625 4.144531 14.703125 1.46875 14.703125 L -1.53125 14.703125 L -1.53125 10.34375 L 0.625 10.34375 C 2.050781 10.34375 3.054688 10.0625 3.640625 9.5 C 4.222656 8.9375 4.515625 7.972656 4.515625 6.609375 L 4.515625 -30.984375 L 9.671875 -30.984375 Z M 9.671875 6.734375 "/></g></g></g><g fill="#fad9b2" fill-opacity="1"><g transform="translate(71.401906, 94.824068)"><g><path d="M 2.4375 -15.609375 C 2.4375 -18.765625 3.078125 -21.539062 4.359375 -23.9375 C 5.640625 -26.332031 7.398438 -28.1875 9.640625 -29.5 C 11.878906 -30.820312 14.375 -31.484375 17.125 -31.484375 C 19.84375 -31.484375 22.195312 -30.898438 24.1875 -29.734375 C 26.1875 -28.566406 27.675781 -27.097656 28.65625 -25.328125 L 28.65625 -30.984375 L 33.859375 -30.984375 L 33.859375 0 L 28.65625 0 L 28.65625 -5.765625 C 27.644531 -3.953125 26.128906 -2.453125 24.109375 -1.265625 C 22.097656 -0.078125 19.753906 0.515625 17.078125 0.515625 C 14.328125 0.515625 11.835938 -0.160156 9.609375 -1.515625 C 7.390625 -2.878906 5.640625 -4.785156 4.359375 -7.234375 C 3.078125 -9.679688 2.4375 -12.472656 2.4375 -15.609375 Z M 28.65625 -15.546875 C 28.65625 -17.878906 28.179688 -19.910156 27.234375 -21.640625 C 26.296875 -23.378906 25.023438 -24.707031 23.421875 -25.625 C 21.828125 -26.550781 20.066406 -27.015625 18.140625 -27.015625 C 16.222656 -27.015625 14.472656 -26.5625 12.890625 -25.65625 C 11.304688 -24.757812 10.039062 -23.441406 9.09375 -21.703125 C 8.15625 -19.972656 7.6875 -17.941406 7.6875 -15.609375 C 7.6875 -13.234375 8.15625 -11.164062 9.09375 -9.40625 C 10.039062 -7.65625 11.304688 -6.316406 12.890625 -5.390625 C 14.472656 -4.472656 16.222656 -4.015625 18.140625 -4.015625 C 20.066406 -4.015625 21.828125 -4.472656 23.421875 -5.390625 C 25.023438 -6.316406 26.296875 -7.65625 27.234375 -9.40625 C 28.179688 -11.164062 28.65625 -13.210938 28.65625 -15.546875 Z M 28.65625 -15.546875 "/></g></g></g><g fill="#fad9b2" fill-opacity="1"><g transform="translate(106.213392, 94.824068)"><g><path d="M 19.453125 -31.546875 C 23.210938 -31.546875 26.257812 -30.40625 28.59375 -28.125 C 30.9375 -25.84375 32.109375 -22.554688 32.109375 -18.265625 L 32.109375 0 L 27.015625 0 L 27.015625 -17.53125 C 27.015625 -20.613281 26.242188 -22.972656 24.703125 -24.609375 C 23.160156 -26.253906 21.050781 -27.078125 18.375 -27.078125 C 15.65625 -27.078125 13.492188 -26.226562 11.890625 -24.53125 C 10.296875 -22.832031 9.5 -20.363281 9.5 -17.125 L 9.5 0 L 4.359375 0 L 4.359375 -30.984375 L 9.5 -30.984375 L 9.5 -26.5625 C 10.519531 -28.144531 11.90625 -29.367188 13.65625 -30.234375 C 15.40625 -31.109375 17.335938 -31.546875 19.453125 -31.546875 Z M 19.453125 -31.546875 "/></g></g></g><g fill="#fad9b2" fill-opacity="1"><g transform="translate(138.990367, 94.824068)"><g><path d="M 17.125 -31.484375 C 19.800781 -31.484375 22.144531 -30.898438 24.15625 -29.734375 C 26.175781 -28.566406 27.675781 -27.097656 28.65625 -25.328125 L 28.65625 -30.984375 L 33.859375 -30.984375 L 33.859375 0.671875 C 33.859375 3.503906 33.253906 6.019531 32.046875 8.21875 C 30.847656 10.425781 29.125 12.148438 26.875 13.390625 C 24.632812 14.640625 22.023438 15.265625 19.046875 15.265625 C 14.984375 15.265625 11.59375 14.300781 8.875 12.375 C 6.164062 10.457031 4.5625 7.835938 4.0625 4.515625 L 9.15625 4.515625 C 9.71875 6.398438 10.882812 7.914062 12.65625 9.0625 C 14.425781 10.21875 16.554688 10.796875 19.046875 10.796875 C 21.878906 10.796875 24.1875 9.910156 25.96875 8.140625 C 27.757812 6.367188 28.65625 3.878906 28.65625 0.671875 L 28.65625 -5.828125 C 27.644531 -4.015625 26.140625 -2.503906 24.140625 -1.296875 C 22.140625 -0.0859375 19.800781 0.515625 17.125 0.515625 C 14.375 0.515625 11.878906 -0.160156 9.640625 -1.515625 C 7.398438 -2.878906 5.640625 -4.785156 4.359375 -7.234375 C 3.078125 -9.679688 2.4375 -12.472656 2.4375 -15.609375 C 2.4375 -18.765625 3.078125 -21.539062 4.359375 -23.9375 C 5.640625 -26.332031 7.398438 -28.1875 9.640625 -29.5 C 11.878906 -30.820312 14.375 -31.484375 17.125 -31.484375 Z M 28.65625 -15.546875 C 28.65625 -17.878906 28.179688 -19.910156 27.234375 -21.640625 C 26.296875 -23.378906 25.023438 -24.707031 23.421875 -25.625 C 21.828125 -26.550781 20.066406 -27.015625 18.140625 -27.015625 C 16.222656 -27.015625 14.472656 -26.5625 12.890625 -25.65625 C 11.304688 -24.757812 10.039062 -23.441406 9.09375 -21.703125 C 8.15625 -19.972656 7.6875 -17.941406 7.6875 -15.609375 C 7.6875 -13.234375 8.15625 -11.164062 9.09375 -9.40625 C 10.039062 -7.65625 11.304688 -6.316406 12.890625 -5.390625 C 14.472656 -4.472656 16.222656 -4.015625 18.140625 -4.015625 C 20.066406 -4.015625 21.828125 -4.472656 23.421875 -5.390625 C 25.023438 -6.316406 26.296875 -7.65625 27.234375 -9.40625 C 28.179688 -11.164062 28.65625 -13.210938 28.65625 -15.546875 Z M 28.65625 -15.546875 "/></g></g></g><g fill="#fad9b2" fill-opacity="1"><g transform="translate(173.801853, 94.824068)"><g><path d="M 17.859375 0.515625 C 14.960938 0.515625 12.332031 -0.144531 9.96875 -1.46875 C 7.613281 -2.789062 5.769531 -4.664062 4.4375 -7.09375 C 3.101562 -9.519531 2.4375 -12.335938 2.4375 -15.546875 C 2.4375 -18.710938 3.125 -21.507812 4.5 -23.9375 C 5.875 -26.375 7.75 -28.238281 10.125 -29.53125 C 12.5 -30.832031 15.15625 -31.484375 18.09375 -31.484375 C 21.03125 -31.484375 23.6875 -30.832031 26.0625 -29.53125 C 28.4375 -28.238281 30.3125 -26.382812 31.6875 -23.96875 C 33.0625 -21.550781 33.75 -18.742188 33.75 -15.546875 C 33.75 -12.335938 33.039062 -9.519531 31.625 -7.09375 C 30.21875 -4.664062 28.304688 -2.789062 25.890625 -1.46875 C 23.472656 -0.144531 20.796875 0.515625 17.859375 0.515625 Z M 17.859375 -4.015625 C 19.710938 -4.015625 21.445312 -4.445312 23.0625 -5.3125 C 24.6875 -6.175781 25.992188 -7.472656 26.984375 -9.203125 C 27.984375 -10.941406 28.484375 -13.054688 28.484375 -15.546875 C 28.484375 -18.035156 27.992188 -20.144531 27.015625 -21.875 C 26.035156 -23.613281 24.753906 -24.90625 23.171875 -25.75 C 21.585938 -26.59375 19.875 -27.015625 18.03125 -27.015625 C 16.144531 -27.015625 14.421875 -26.59375 12.859375 -25.75 C 11.296875 -24.90625 10.039062 -23.613281 9.09375 -21.875 C 8.15625 -20.144531 7.6875 -18.035156 7.6875 -15.546875 C 7.6875 -13.023438 8.144531 -10.894531 9.0625 -9.15625 C 9.988281 -7.425781 11.222656 -6.132812 12.765625 -5.28125 C 14.316406 -4.4375 16.015625 -4.015625 17.859375 -4.015625 Z M 17.859375 -4.015625 "/></g></g></g><g fill="#fad9b2" fill-opacity="1"><g transform="translate(206.578828, 94.824068)"><g/></g></g><g fill="#fad9b2" fill-opacity="1"><g transform="translate(218.276031, 94.824068)"><g><path d="M 16.84375 0.390625 C 14.25 0.390625 11.921875 -0.0664062 9.859375 -0.984375 C 7.804688 -1.910156 6.195312 -3.191406 5.03125 -4.828125 C 3.863281 -6.472656 3.257812 -8.367188 3.21875 -10.515625 L 8.703125 -10.515625 C 8.890625 -8.671875 9.648438 -7.113281 10.984375 -5.84375 C 12.328125 -4.582031 14.28125 -3.953125 16.84375 -3.953125 C 19.289062 -3.953125 21.222656 -4.5625 22.640625 -5.78125 C 24.054688 -7.007812 24.765625 -8.585938 24.765625 -10.515625 C 24.765625 -12.023438 24.347656 -13.25 23.515625 -14.1875 C 22.679688 -15.132812 21.644531 -15.851562 20.40625 -16.34375 C 19.164062 -16.832031 17.488281 -17.359375 15.375 -17.921875 C 12.769531 -18.597656 10.6875 -19.273438 9.125 -19.953125 C 7.5625 -20.628906 6.222656 -21.691406 5.109375 -23.140625 C 4.003906 -24.597656 3.453125 -26.550781 3.453125 -29 C 3.453125 -31.144531 4 -33.046875 5.09375 -34.703125 C 6.1875 -36.367188 7.71875 -37.648438 9.6875 -38.546875 C 11.664062 -39.453125 13.9375 -39.90625 16.5 -39.90625 C 20.195312 -39.90625 23.222656 -38.984375 25.578125 -37.140625 C 27.929688 -35.296875 29.257812 -32.847656 29.5625 -29.796875 L 23.90625 -29.796875 C 23.71875 -31.296875 22.925781 -32.617188 21.53125 -33.765625 C 20.144531 -34.921875 18.300781 -35.5 16 -35.5 C 13.851562 -35.5 12.097656 -34.941406 10.734375 -33.828125 C 9.378906 -32.722656 8.703125 -31.171875 8.703125 -29.171875 C 8.703125 -27.734375 9.109375 -26.5625 9.921875 -25.65625 C 10.734375 -24.757812 11.734375 -24.070312 12.921875 -23.59375 C 14.109375 -23.125 15.773438 -22.585938 17.921875 -21.984375 C 20.523438 -21.273438 22.613281 -20.570312 24.1875 -19.875 C 25.769531 -19.175781 27.128906 -18.097656 28.265625 -16.640625 C 29.398438 -15.191406 29.96875 -13.222656 29.96875 -10.734375 C 29.96875 -8.816406 29.457031 -7.007812 28.4375 -5.3125 C 27.414062 -3.613281 25.90625 -2.238281 23.90625 -1.1875 C 21.914062 -0.132812 19.5625 0.390625 16.84375 0.390625 Z M 16.84375 0.390625 "/></g></g></g><g fill="#fad9b2" fill-opacity="1"><g transform="translate(248.057753, 94.824068)"><g><path d="M 10.625 -26.734375 L 10.625 -8.484375 C 10.625 -6.972656 10.941406 -5.90625 11.578125 -5.28125 C 12.222656 -4.664062 13.335938 -4.359375 14.921875 -4.359375 L 18.71875 -4.359375 L 18.71875 0 L 14.078125 0 C 11.210938 0 9.0625 -0.65625 7.625 -1.96875 C 6.195312 -3.289062 5.484375 -5.460938 5.484375 -8.484375 L 5.484375 -26.734375 L 1.46875 -26.734375 L 1.46875 -30.984375 L 5.484375 -30.984375 L 5.484375 -38.78125 L 10.625 -38.78125 L 10.625 -30.984375 L 18.71875 -30.984375 L 18.71875 -26.734375 Z M 10.625 -26.734375 "/></g></g></g><g fill="#fad9b2" fill-opacity="1"><g transform="translate(265.236824, 94.824068)"><g><path d="M 17.859375 0.515625 C 14.960938 0.515625 12.332031 -0.144531 9.96875 -1.46875 C 7.613281 -2.789062 5.769531 -4.664062 4.4375 -7.09375 C 3.101562 -9.519531 2.4375 -12.335938 2.4375 -15.546875 C 2.4375 -18.710938 3.125 -21.507812 4.5 -23.9375 C 5.875 -26.375 7.75 -28.238281 10.125 -29.53125 C 12.5 -30.832031 15.15625 -31.484375 18.09375 -31.484375 C 21.03125 -31.484375 23.6875 -30.832031 26.0625 -29.53125 C 28.4375 -28.238281 30.3125 -26.382812 31.6875 -23.96875 C 33.0625 -21.550781 33.75 -18.742188 33.75 -15.546875 C 33.75 -12.335938 33.039062 -9.519531 31.625 -7.09375 C 30.21875 -4.664062 28.304688 -2.789062 25.890625 -1.46875 C 23.472656 -0.144531 20.796875 0.515625 17.859375 0.515625 Z M 17.859375 -4.015625 C 19.710938 -4.015625 21.445312 -4.445312 23.0625 -5.3125 C 24.6875 -6.175781 25.992188 -7.472656 26.984375 -9.203125 C 27.984375 -10.941406 28.484375 -13.054688 28.484375 -15.546875 C 28.484375 -18.035156 27.992188 -20.144531 27.015625 -21.875 C 26.035156 -23.613281 24.753906 -24.90625 23.171875 -25.75 C 21.585938 -26.59375 19.875 -27.015625 18.03125 -27.015625 C 16.144531 -27.015625 14.421875 -26.59375 12.859375 -25.75 C 11.296875 -24.90625 10.039062 -23.613281 9.09375 -21.875 C 8.15625 -20.144531 7.6875 -18.035156 7.6875 -15.546875 C 7.6875 -13.023438 8.144531 -10.894531 9.0625 -9.15625 C 9.988281 -7.425781 11.222656 -6.132812 12.765625 -5.28125 C 14.316406 -4.4375 16.015625 -4.015625 17.859375 -4.015625 Z M 17.859375 -4.015625 "/></g></g></g><g fill="#fad9b2" fill-opacity="1"><g transform="translate(298.013785, 94.824068)"><g><path d="M 9.5 -25.953125 C 10.40625 -27.722656 11.695312 -29.097656 13.375 -30.078125 C 15.050781 -31.054688 17.09375 -31.546875 19.5 -31.546875 L 19.5 -26.234375 L 18.140625 -26.234375 C 12.378906 -26.234375 9.5 -23.101562 9.5 -16.84375 L 9.5 0 L 4.359375 0 L 4.359375 -30.984375 L 9.5 -30.984375 Z M 9.5 -25.953125 "/></g></g></g><g fill="#fad9b2" fill-opacity="1"><g transform="translate(315.701481, 94.824068)"><g><path d="M 32.625 -16.671875 C 32.625 -15.691406 32.566406 -14.65625 32.453125 -13.5625 L 7.6875 -13.5625 C 7.875 -10.507812 8.921875 -8.125 10.828125 -6.40625 C 12.734375 -4.695312 15.039062 -3.84375 17.75 -3.84375 C 19.976562 -3.84375 21.832031 -4.359375 23.3125 -5.390625 C 24.800781 -6.429688 25.847656 -7.816406 26.453125 -9.546875 L 32 -9.546875 C 31.164062 -6.578125 29.503906 -4.15625 27.015625 -2.28125 C 24.535156 -0.414062 21.445312 0.515625 17.75 0.515625 C 14.8125 0.515625 12.179688 -0.144531 9.859375 -1.46875 C 7.546875 -2.789062 5.726562 -4.664062 4.40625 -7.09375 C 3.09375 -9.519531 2.4375 -12.335938 2.4375 -15.546875 C 2.4375 -18.742188 3.078125 -21.550781 4.359375 -23.96875 C 5.640625 -26.382812 7.4375 -28.238281 9.75 -29.53125 C 12.070312 -30.832031 14.738281 -31.484375 17.75 -31.484375 C 20.6875 -31.484375 23.285156 -30.84375 25.546875 -29.5625 C 27.804688 -28.28125 29.550781 -26.519531 30.78125 -24.28125 C 32.007812 -22.039062 32.625 -19.503906 32.625 -16.671875 Z M 27.296875 -17.75 C 27.296875 -19.707031 26.863281 -21.394531 26 -22.8125 C 25.132812 -24.226562 23.957031 -25.300781 22.46875 -26.03125 C 20.976562 -26.769531 19.332031 -27.140625 17.53125 -27.140625 C 14.925781 -27.140625 12.707031 -26.304688 10.875 -24.640625 C 9.050781 -22.984375 8.007812 -20.6875 7.75 -17.75 Z M 27.296875 -17.75 "/></g></g></g></svg>