<svg xmlns="http://www.w3.org/2000/svg" xmlns:xlink="http://www.w3.org/1999/xlink" width="500" zoomAndPan="magnify" viewBox="0 0 375 74.999997" height="100" preserveAspectRatio="xMidYMid meet" version="1.0"><defs><g/></defs><g fill="#fad9b2" fill-opacity="1"><g transform="translate(11.531797, 58.865768)"><g><path d="M 17.90625 -42.46875 C 22.539062 -42.46875 26.550781 -41.601562 29.9375 -39.875 C 33.332031 -38.144531 35.929688 -35.675781 37.734375 -32.46875 C 39.546875 -29.257812 40.453125 -25.484375 40.453125 -21.140625 C 40.453125 -16.796875 39.546875 -13.03125 37.734375 -9.84375 C 35.929688 -6.65625 33.332031 -4.21875 29.9375 -2.53125 C 26.550781 -0.84375 22.539062 0 17.90625 0 L 4.6875 0 L 4.6875 -42.46875 Z M 17.90625 -4.5625 C 23.394531 -4.5625 27.578125 -6.015625 30.453125 -8.921875 C 33.335938 -11.828125 34.78125 -15.898438 34.78125 -21.140625 C 34.78125 -26.421875 33.328125 -30.539062 30.421875 -33.5 C 27.523438 -36.46875 23.351562 -37.953125 17.90625 -37.953125 L 10.234375 -37.953125 L 10.234375 -4.5625 Z M 17.90625 -4.5625 "/></g></g></g><g fill="#fad9b2" fill-opacity="1"><g transform="translate(50.938726, 58.865768)"><g><path d="M 7.671875 -38.8125 C 6.617188 -38.8125 5.734375 -39.175781 5.015625 -39.90625 C 4.304688 -40.632812 3.953125 -41.523438 3.953125 -42.578125 C 3.953125 -43.640625 4.304688 -44.535156 5.015625 -45.265625 C 5.734375 -45.992188 6.617188 -46.359375 7.671875 -46.359375 C 8.734375 -46.359375 9.617188 -45.992188 10.328125 -45.265625 C 11.035156 -44.535156 11.390625 -43.640625 11.390625 -42.578125 C 11.390625 -41.523438 11.035156 -40.632812 10.328125 -39.90625 C 9.617188 -39.175781 8.734375 -38.8125 7.671875 -38.8125 Z M 10.421875 7.25 C 10.421875 10.21875 9.664062 12.390625 8.15625 13.765625 C 6.65625 15.148438 4.460938 15.84375 1.578125 15.84375 L -1.640625 15.84375 L -1.640625 11.15625 L 0.671875 11.15625 C 2.210938 11.15625 3.296875 10.847656 3.921875 10.234375 C 4.554688 9.628906 4.875 8.59375 4.875 7.125 L 4.875 -33.390625 L 10.421875 -33.390625 Z M 10.421875 7.25 "/></g></g></g><g fill="#fad9b2" fill-opacity="1"><g transform="translate(62.388335, 58.865768)"><g><path d="M 2.625 -16.8125 C 2.625 -20.226562 3.3125 -23.222656 4.6875 -25.796875 C 6.070312 -28.378906 7.972656 -30.378906 10.390625 -31.796875 C 12.804688 -33.222656 15.492188 -33.9375 18.453125 -33.9375 C 21.378906 -33.9375 23.914062 -33.304688 26.0625 -32.046875 C 28.21875 -30.785156 29.828125 -29.203125 30.890625 -27.296875 L 30.890625 -33.390625 L 36.5 -33.390625 L 36.5 0 L 30.890625 0 L 30.890625 -6.21875 C 29.796875 -4.269531 28.160156 -2.65625 25.984375 -1.375 C 23.804688 -0.09375 21.273438 0.546875 18.390625 0.546875 C 15.429688 0.546875 12.753906 -0.179688 10.359375 -1.640625 C 7.960938 -3.109375 6.070312 -5.160156 4.6875 -7.796875 C 3.3125 -10.441406 2.625 -13.445312 2.625 -16.8125 Z M 30.890625 -16.75 C 30.890625 -19.269531 30.378906 -21.460938 29.359375 -23.328125 C 28.347656 -25.203125 26.976562 -26.632812 25.25 -27.625 C 23.519531 -28.625 21.625 -29.125 19.5625 -29.125 C 17.488281 -29.125 15.597656 -28.632812 13.890625 -27.65625 C 12.179688 -26.6875 10.816406 -25.265625 9.796875 -23.390625 C 8.785156 -21.523438 8.28125 -19.332031 8.28125 -16.8125 C 8.28125 -14.25 8.785156 -12.023438 9.796875 -10.140625 C 10.816406 -8.253906 12.179688 -6.8125 13.890625 -5.8125 C 15.597656 -4.820312 17.488281 -4.328125 19.5625 -4.328125 C 21.625 -4.328125 23.519531 -4.820312 25.25 -5.8125 C 26.976562 -6.8125 28.347656 -8.253906 29.359375 -10.140625 C 30.378906 -12.023438 30.890625 -14.226562 30.890625 -16.75 Z M 30.890625 -16.75 "/></g></g></g><g fill="#fad9b2" fill-opacity="1"><g transform="translate(99.907077, 58.865768)"><g><path d="M 20.953125 -34 C 25.015625 -34 28.304688 -32.769531 30.828125 -30.3125 C 33.347656 -27.851562 34.609375 -24.304688 34.609375 -19.671875 L 34.609375 0 L 29.125 0 L 29.125 -18.890625 C 29.125 -22.210938 28.289062 -24.757812 26.625 -26.53125 C 24.957031 -28.300781 22.679688 -29.1875 19.796875 -29.1875 C 16.867188 -29.1875 14.539062 -28.269531 12.8125 -26.4375 C 11.09375 -24.613281 10.234375 -21.953125 10.234375 -18.453125 L 10.234375 0 L 4.6875 0 L 4.6875 -33.390625 L 10.234375 -33.390625 L 10.234375 -28.640625 C 11.328125 -30.335938 12.816406 -31.65625 14.703125 -32.59375 C 16.597656 -33.53125 18.679688 -34 20.953125 -34 Z M 20.953125 -34 "/></g></g></g><g fill="#fad9b2" fill-opacity="1"><g transform="translate(135.233087, 58.865768)"><g><path d="M 18.453125 -33.9375 C 21.335938 -33.9375 23.863281 -33.304688 26.03125 -32.046875 C 28.207031 -30.785156 29.828125 -29.203125 30.890625 -27.296875 L 30.890625 -33.390625 L 36.5 -33.390625 L 36.5 0.734375 C 36.5 3.773438 35.847656 6.484375 34.546875 8.859375 C 33.242188 11.234375 31.382812 13.09375 28.96875 14.4375 C 26.550781 15.78125 23.738281 16.453125 20.53125 16.453125 C 16.144531 16.453125 12.488281 15.414062 9.5625 13.34375 C 6.632812 11.269531 4.910156 8.445312 4.390625 4.875 L 9.875 4.875 C 10.476562 6.90625 11.734375 8.539062 13.640625 9.78125 C 15.554688 11.019531 17.851562 11.640625 20.53125 11.640625 C 23.570312 11.640625 26.054688 10.679688 27.984375 8.765625 C 29.921875 6.859375 30.890625 4.179688 30.890625 0.734375 L 30.890625 -6.28125 C 29.796875 -4.320312 28.171875 -2.691406 26.015625 -1.390625 C 23.859375 -0.0976562 21.335938 0.546875 18.453125 0.546875 C 15.492188 0.546875 12.804688 -0.179688 10.390625 -1.640625 C 7.972656 -3.109375 6.070312 -5.160156 4.6875 -7.796875 C 3.3125 -10.441406 2.625 -13.445312 2.625 -16.8125 C 2.625 -20.226562 3.3125 -23.222656 4.6875 -25.796875 C 6.070312 -28.378906 7.972656 -30.378906 10.390625 -31.796875 C 12.804688 -33.222656 15.492188 -33.9375 18.453125 -33.9375 Z M 30.890625 -16.75 C 30.890625 -19.269531 30.378906 -21.460938 29.359375 -23.328125 C 28.347656 -25.203125 26.976562 -26.632812 25.25 -27.625 C 23.519531 -28.625 21.625 -29.125 19.5625 -29.125 C 17.488281 -29.125 15.597656 -28.632812 13.890625 -27.65625 C 12.179688 -26.6875 10.816406 -25.265625 9.796875 -23.390625 C 8.785156 -21.523438 8.28125 -19.332031 8.28125 -16.8125 C 8.28125 -14.25 8.785156 -12.023438 9.796875 -10.140625 C 10.816406 -8.253906 12.179688 -6.8125 13.890625 -5.8125 C 15.597656 -4.820312 17.488281 -4.328125 19.5625 -4.328125 C 21.625 -4.328125 23.519531 -4.820312 25.25 -5.8125 C 26.976562 -6.8125 28.347656 -8.253906 29.359375 -10.140625 C 30.378906 -12.023438 30.890625 -14.226562 30.890625 -16.75 Z M 30.890625 -16.75 "/></g></g></g><g fill="#fad9b2" fill-opacity="1"><g transform="translate(172.75183, 58.865768)"><g><path d="M 19.25 0.546875 C 16.125 0.546875 13.289062 -0.160156 10.75 -1.578125 C 8.207031 -3.003906 6.21875 -5.023438 4.78125 -7.640625 C 3.34375 -10.265625 2.625 -13.300781 2.625 -16.75 C 2.625 -20.164062 3.363281 -23.179688 4.84375 -25.796875 C 6.320312 -28.421875 8.34375 -30.429688 10.90625 -31.828125 C 13.46875 -33.234375 16.332031 -33.9375 19.5 -33.9375 C 22.664062 -33.9375 25.523438 -33.234375 28.078125 -31.828125 C 30.640625 -30.429688 32.660156 -28.429688 34.140625 -25.828125 C 35.628906 -23.234375 36.375 -20.207031 36.375 -16.75 C 36.375 -13.300781 35.609375 -10.265625 34.078125 -7.640625 C 32.554688 -5.023438 30.492188 -3.003906 27.890625 -1.578125 C 25.296875 -0.160156 22.414062 0.546875 19.25 0.546875 Z M 19.25 -4.328125 C 21.238281 -4.328125 23.101562 -4.789062 24.84375 -5.71875 C 26.59375 -6.65625 28.003906 -8.054688 29.078125 -9.921875 C 30.160156 -11.796875 30.703125 -14.070312 30.703125 -16.75 C 30.703125 -19.4375 30.171875 -21.710938 29.109375 -23.578125 C 28.054688 -25.441406 26.675781 -26.832031 24.96875 -27.75 C 23.269531 -28.664062 21.425781 -29.125 19.4375 -29.125 C 17.40625 -29.125 15.546875 -28.664062 13.859375 -27.75 C 12.171875 -26.832031 10.816406 -25.441406 9.796875 -23.578125 C 8.785156 -21.710938 8.28125 -19.4375 8.28125 -16.75 C 8.28125 -14.03125 8.773438 -11.734375 9.765625 -9.859375 C 10.765625 -7.992188 12.097656 -6.601562 13.765625 -5.6875 C 15.429688 -4.78125 17.257812 -4.328125 19.25 -4.328125 Z M 19.25 -4.328125 "/></g></g></g><g fill="#fad9b2" fill-opacity="1"><g transform="translate(208.07784, 58.865768)"><g/></g></g><g fill="#fad9b2" fill-opacity="1"><g transform="translate(220.684723, 58.865768)"><g><path d="M 18.15625 0.421875 C 15.351562 0.421875 12.84375 -0.0703125 10.625 -1.0625 C 8.414062 -2.0625 6.679688 -3.441406 5.421875 -5.203125 C 4.160156 -6.972656 3.507812 -9.015625 3.46875 -11.328125 L 9.375 -11.328125 C 9.582031 -9.335938 10.40625 -7.660156 11.84375 -6.296875 C 13.289062 -4.941406 15.394531 -4.265625 18.15625 -4.265625 C 20.789062 -4.265625 22.867188 -4.921875 24.390625 -6.234375 C 25.921875 -7.554688 26.6875 -9.253906 26.6875 -11.328125 C 26.6875 -12.953125 26.238281 -14.269531 25.34375 -15.28125 C 24.445312 -16.300781 23.328125 -17.070312 21.984375 -17.59375 C 20.648438 -18.125 18.847656 -18.695312 16.578125 -19.3125 C 13.765625 -20.039062 11.515625 -20.769531 9.828125 -21.5 C 8.148438 -22.238281 6.710938 -23.390625 5.515625 -24.953125 C 4.316406 -26.515625 3.71875 -28.613281 3.71875 -31.25 C 3.71875 -33.5625 4.304688 -35.613281 5.484375 -37.40625 C 6.660156 -39.195312 8.3125 -40.578125 10.4375 -41.546875 C 12.570312 -42.523438 15.023438 -43.015625 17.796875 -43.015625 C 21.773438 -43.015625 25.03125 -42.019531 27.5625 -40.03125 C 30.101562 -38.039062 31.535156 -35.398438 31.859375 -32.109375 L 25.765625 -32.109375 C 25.566406 -33.734375 24.710938 -35.164062 23.203125 -36.40625 C 21.703125 -37.644531 19.710938 -38.265625 17.234375 -38.265625 C 14.921875 -38.265625 13.03125 -37.664062 11.5625 -36.46875 C 10.101562 -35.269531 9.375 -33.59375 9.375 -31.4375 C 9.375 -29.894531 9.8125 -28.632812 10.6875 -27.65625 C 11.5625 -26.6875 12.640625 -25.945312 13.921875 -25.4375 C 15.203125 -24.925781 17 -24.347656 19.3125 -23.703125 C 22.113281 -22.929688 24.367188 -22.164062 26.078125 -21.40625 C 27.785156 -20.65625 29.242188 -19.5 30.453125 -17.9375 C 31.671875 -16.375 32.28125 -14.253906 32.28125 -11.578125 C 32.28125 -9.503906 31.734375 -7.550781 30.640625 -5.71875 C 29.546875 -3.894531 27.921875 -2.414062 25.765625 -1.28125 C 23.617188 -0.144531 21.082031 0.421875 18.15625 0.421875 Z M 18.15625 0.421875 "/></g></g></g><g fill="#fad9b2" fill-opacity="1"><g transform="translate(252.782541, 58.865768)"><g><path d="M 11.453125 -28.8125 L 11.453125 -9.140625 C 11.453125 -7.515625 11.796875 -6.363281 12.484375 -5.6875 C 13.179688 -5.019531 14.378906 -4.6875 16.078125 -4.6875 L 20.171875 -4.6875 L 20.171875 0 L 15.171875 0 C 12.085938 0 9.769531 -0.707031 8.21875 -2.125 C 6.675781 -3.550781 5.90625 -5.890625 5.90625 -9.140625 L 5.90625 -28.8125 L 1.578125 -28.8125 L 1.578125 -33.390625 L 5.90625 -33.390625 L 5.90625 -41.796875 L 11.453125 -41.796875 L 11.453125 -33.390625 L 20.171875 -33.390625 L 20.171875 -28.8125 Z M 11.453125 -28.8125 "/></g></g></g><g fill="#fad9b2" fill-opacity="1"><g transform="translate(271.297613, 58.865768)"><g><path d="M 19.25 0.546875 C 16.125 0.546875 13.289062 -0.160156 10.75 -1.578125 C 8.207031 -3.003906 6.21875 -5.023438 4.78125 -7.640625 C 3.34375 -10.265625 2.625 -13.300781 2.625 -16.75 C 2.625 -20.164062 3.363281 -23.179688 4.84375 -25.796875 C 6.320312 -28.421875 8.34375 -30.429688 10.90625 -31.828125 C 13.46875 -33.234375 16.332031 -33.9375 19.5 -33.9375 C 22.664062 -33.9375 25.523438 -33.234375 28.078125 -31.828125 C 30.640625 -30.429688 32.660156 -28.429688 34.140625 -25.828125 C 35.628906 -23.234375 36.375 -20.207031 36.375 -16.75 C 36.375 -13.300781 35.609375 -10.265625 34.078125 -7.640625 C 32.554688 -5.023438 30.492188 -3.003906 27.890625 -1.578125 C 25.296875 -0.160156 22.414062 0.546875 19.25 0.546875 Z M 19.25 -4.328125 C 21.238281 -4.328125 23.101562 -4.789062 24.84375 -5.71875 C 26.59375 -6.65625 28.003906 -8.054688 29.078125 -9.921875 C 30.160156 -11.796875 30.703125 -14.070312 30.703125 -16.75 C 30.703125 -19.4375 30.171875 -21.710938 29.109375 -23.578125 C 28.054688 -25.441406 26.675781 -26.832031 24.96875 -27.75 C 23.269531 -28.664062 21.425781 -29.125 19.4375 -29.125 C 17.40625 -29.125 15.546875 -28.664062 13.859375 -27.75 C 12.171875 -26.832031 10.816406 -25.441406 9.796875 -23.578125 C 8.785156 -21.710938 8.28125 -19.4375 8.28125 -16.75 C 8.28125 -14.03125 8.773438 -11.734375 9.765625 -9.859375 C 10.765625 -7.992188 12.097656 -6.601562 13.765625 -5.6875 C 15.429688 -4.78125 17.257812 -4.328125 19.25 -4.328125 Z M 19.25 -4.328125 "/></g></g></g><g fill="#fad9b2" fill-opacity="1"><g transform="translate(306.623607, 58.865768)"><g><path d="M 10.234375 -27.96875 C 11.210938 -29.875 12.601562 -31.351562 14.40625 -32.40625 C 16.21875 -33.46875 18.421875 -34 21.015625 -34 L 21.015625 -28.265625 L 19.5625 -28.265625 C 13.34375 -28.265625 10.234375 -24.894531 10.234375 -18.15625 L 10.234375 0 L 4.6875 0 L 4.6875 -33.390625 L 10.234375 -33.390625 Z M 10.234375 -27.96875 "/></g></g></g><g fill="#fad9b2" fill-opacity="1"><g transform="translate(325.686858, 58.865768)"><g><path d="M 35.15625 -17.96875 C 35.15625 -16.914062 35.09375 -15.800781 34.96875 -14.625 L 8.28125 -14.625 C 8.488281 -11.332031 9.617188 -8.757812 11.671875 -6.90625 C 13.722656 -5.0625 16.207031 -4.140625 19.125 -4.140625 C 21.519531 -4.140625 23.519531 -4.695312 25.125 -5.8125 C 26.726562 -6.9375 27.859375 -8.429688 28.515625 -10.296875 L 34.484375 -10.296875 C 33.585938 -7.085938 31.796875 -4.476562 29.109375 -2.46875 C 26.429688 -0.457031 23.101562 0.546875 19.125 0.546875 C 15.957031 0.546875 13.125 -0.160156 10.625 -1.578125 C 8.132812 -3.003906 6.175781 -5.023438 4.75 -7.640625 C 3.332031 -10.265625 2.625 -13.300781 2.625 -16.75 C 2.625 -20.207031 3.3125 -23.234375 4.6875 -25.828125 C 6.070312 -28.429688 8.007812 -30.429688 10.5 -31.828125 C 13 -33.234375 15.875 -33.9375 19.125 -33.9375 C 22.289062 -33.9375 25.09375 -33.242188 27.53125 -31.859375 C 29.96875 -30.484375 31.847656 -28.585938 33.171875 -26.171875 C 34.492188 -23.753906 35.15625 -21.019531 35.15625 -17.96875 Z M 29.421875 -19.125 C 29.421875 -21.238281 28.953125 -23.054688 28.015625 -24.578125 C 27.085938 -26.097656 25.820312 -27.253906 24.21875 -28.046875 C 22.613281 -28.847656 20.835938 -29.25 18.890625 -29.25 C 16.085938 -29.25 13.695312 -28.351562 11.71875 -26.5625 C 9.75 -24.769531 8.625 -22.289062 8.34375 -19.125 Z M 29.421875 -19.125 "/></g></g></g></svg>